<?xml version="1.0" encoding="utf-8"?>
<!-- Generator: Adobe Illustrator 21.1.0, SVG Export Plug-In . SVG Version: 6.00 Build 0)  -->
<svg version="1.1" id="Layer_1" xmlns="http://www.w3.org/2000/svg" xmlns:xlink="http://www.w3.org/1999/xlink" x="0px" y="0px"
	 viewBox="0 0 512 512" style="enable-background:new 0 0 512 512;" xml:space="preserve">
<style type="text/css">
	.st0{fill:#BBBBBB;}
</style>
<g id="Magnifier">
	<g>
		<path class="st0" d="M507.5,483.1L352.8,327.5C381.6,293,399,248.5,399,200C399,90.1,309.9,1,200,1C90.1,1,1,90.1,1,200
			s89.1,199,199,199c49.9,0,95.6-18.4,130.5-48.8L485,505.7c6.2,6.2,16.3,6.2,22.5,0C513.7,499.4,513.7,489.4,507.5,483.1z
			 M200,367.5c-92.5,0-167.4-75-167.4-167.4S107.5,32.6,200,32.6s167.4,75,167.4,167.4S292.5,367.5,200,367.5z"/>
	</g>
</g>
</svg>
